<?xml version="1.0" standalone="no"?>
<!DOCTYPE svg PUBLIC "-//W3C//DTD SVG 20010904//EN"
 "http://www.w3.org/TR/2001/REC-SVG-20010904/DTD/svg10.dtd">
<svg version="1.0" xmlns="http://www.w3.org/2000/svg"
 width="512.000000pt" height="512.000000pt" viewBox="0 0 512.000000 512.000000"
 preserveAspectRatio="xMidYMid meet">
<metadata>
Created by potrace 1.11, written by Peter Selinger 2001-2013
</metadata>
<g transform="translate(0.000000,512.000000) scale(0.100000,-0.100000)"
fill="#000000" stroke="none">
<path d="M2379 5116 c-2 -2 -40 -6 -83 -10 -44 -4 -82 -9 -85 -11 -4 -2 -34
-7 -66 -10 -117 -14 -472 -111 -499 -136 -6 -5 -16 -9 -23 -9 -8 0 -49 -16
-91 -35 -403 -184 -722 -432 -991 -771 -152 -191 -310 -480 -394 -719 -29 -80
-74 -237 -81 -278 -3 -15 -7 -35 -10 -45 -3 -9 -7 -34 -11 -56 -3 -21 -7 -41
-9 -45 -4 -6 -12 -68 -26 -201 -8 -81 -5 -463 5 -520 3 -19 12 -75 20 -125 29
-174 78 -357 142 -520 35 -89 122 -270 159 -332 10 -17 36 -60 57 -95 46 -77
164 -236 235 -316 320 -365 726 -628 1187 -771 123 -38 289 -74 405 -87 30 -3
76 -10 102 -14 49 -7 473 -5 518 4 14 2 45 7 70 10 25 4 92 16 150 27 58 12
116 23 130 26 39 7 316 101 369 124 90 41 244 121 320 166 636 382 1088 1046
1207 1773 38 236 40 573 5 805 -108 709 -518 1350 -1116 1747 -117 77 -257
155 -370 204 -44 20 -89 39 -100 44 -86 38 -365 119 -465 134 -19 3 -46 8 -60
11 -14 3 -45 8 -70 11 -25 3 -56 8 -70 10 -28 6 -456 15 -461 10z m431 -430
c14 -3 43 -7 65 -10 81 -10 243 -49 360 -87 343 -113 674 -331 916 -604 44
-49 83 -95 87 -100 35 -45 113 -156 128 -182 83 -139 105 -179 141 -259 77
-165 144 -393 169 -569 16 -115 21 -216 18 -370 -1 -93 -5 -179 -7 -190 -3
-11 -8 -42 -11 -70 -58 -434 -274 -861 -603 -1192 -98 -98 -307 -273 -327
-273 -3 0 -38 -21 -77 -46 -175 -113 -489 -238 -679 -269 -19 -3 -46 -8 -60
-10 -62 -13 -79 -15 -150 -22 -95 -10 -365 -10 -450 0 -215 24 -464 92 -652
178 -520 239 -939 692 -1129 1221 -36 100 -71 223 -83 293 -3 17 -8 41 -11 55
-3 14 -8 45 -11 70 -3 25 -8 54 -11 65 -9 39 -11 381 -2 450 4 39 10 88 13
110 3 22 12 74 21 115 9 41 18 83 20 93 2 10 16 57 31 105 190 624 681 1146
1294 1375 91 34 251 80 315 92 17 2 41 7 55 10 27 6 153 23 210 28 52 5 391 0
420 -7z"/>
<path d="M2090 4312 c-38 -11 -40 -29 -40 -309 l0 -273 -313 0 c-291 0 -315
-1 -330 -18 -14 -15 -17 -40 -17 -128 0 -124 6 -140 60 -150 38 -6 40 -7 85
-19 86 -23 181 -119 207 -209 16 -58 16 -1274 0 -1332 -27 -92 -94 -155 -192
-180 -36 -9 -71 -22 -79 -29 -12 -12 -51 -177 -51 -221 0 -11 8 -28 18 -37 16
-15 53 -17 315 -17 l297 0 0 -279 c0 -265 1 -281 19 -293 14 -10 53 -14 131
-13 98 1 114 3 126 20 11 15 14 75 14 292 l0 273 145 0 c109 0 145 -3 146 -12
1 -7 1 -130 1 -272 1 -322 -9 -302 152 -301 152 1 142 -21 141 304 0 145 2
266 5 271 3 4 86 10 185 13 206 5 261 18 375 92 59 38 180 150 180 166 0 4 6
14 13 21 31 33 88 165 101 233 3 17 8 44 11 60 9 48 6 176 -4 230 -29 149 -94
271 -202 376 l-58 56 44 88 c24 48 51 120 60 159 19 86 25 222 13 285 -5 26
-12 57 -14 71 -10 49 -57 153 -96 211 -118 178 -290 277 -498 286 -52 2 -99 6
-105 7 -6 2 -10 101 -9 271 1 329 9 308 -132 310 -108 2 -153 -8 -156 -33 -1
-10 -2 -120 -4 -247 -1 -126 -3 -247 -3 -267 l-1 -38 -145 0 -145 0 0 273 c0
215 -3 277 -14 292 -11 16 -28 19 -117 20 -57 1 -111 0 -119 -3z m807 -1044
c161 -60 237 -253 161 -409 -31 -62 -74 -106 -139 -141 -42 -22 -54 -23 -311
-26 l-268 -3 0 300 0 301 250 0 c231 0 254 -2 307 -22z m119 -867 c181 -50
272 -266 182 -436 -27 -50 -91 -105 -154 -130 -58 -24 -65 -24 -381 -25 l-323
0 0 302 0 303 317 -1 c201 -1 333 -5 359 -13z"/>
</g>
</svg>
